:SAMPLES-PER-SECOND 30
:FULLY-SPECIFIED
:DEGREES
108
root  -33.1238 37.9191 10.0132 27.1378 -86.9611 -32.4176
RightUpLeg  -26.5381 -19.2682 11.801
RightLeg  26.6285 -6.80759 -3.96496
RightFoot  -1.66598 0.839681 -10.2592
RightToes  -1.16417e-010 0 -3.6325e-017
Spine  6.40432 -4.82691 -3.56615
Spine1  3.04752 -7.28112 10.007
HEad  -14.9247 -15.4819 7.00117
LeftShoulder1  8.57202 -13.1283 -44.9098
LeftArm  9.75401 -21.5491 -43.8897
LeftForeArm  45.4329 -40.3145 -6.64201
LeftHand  -0.244104 0.0205437 5.32207
RightShoulder  4.22155 7.05467 34.0277
RightArm  -40.634 -9.32519 22.2118
RightForeArm  -28.327 72.2902 44.0223
RightHand  -4.76311 12.8978 -29.8916
LeftUpLeg  21.2305 20.7532 3.91636
LeftLeg  28.2429 -2.79635 -1.20353
LeftFoot  -12.9492 0.000487715 -7.12692
LeftToes  4.18335e-011 -7.14095e-012 4.81992e-012
109
root  -35.102 37.5793 10.0799 45.1235 -86.6504 -50.9088
RightUpLeg  -26.5386 -14.8133 12.0475
RightLeg  34.2238 -9.7255 -7.26605
RightFoot  -4.55419 0.921961 -15.7527
RightToes  -1.16417e-010 0 -3.6325e-017
Spine  6.58985 -4.89967 -0.536684
Spine1  3.49078 -6.91901 9.34986
HEad  -16.4425 -15.6195 5.24423
LeftShoulder1  8.74802 -12.9488 -46.3805
LeftArm  10.2708 -16.6424 -42.1152
LeftForeArm  46.2625 -36.5983 -5.5963
LeftHand  -0.244104 0.0205437 5.32207
RightShoulder  4.45833 7.35534 35.0937
RightArm  -40.1538 -11.7415 21.519
RightForeArm  -28.5867 72.6028 45.1384
RightHand  -5.08508 13.613 -30.6558
LeftUpLeg  16.0694 20.0384 6.89008
LeftLeg  42.4212 -2.83758 -2.32726
LeftFoot  -0.974891 0.906235 -10.2084
LeftToes  4.18335e-011 -7.14095e-012 4.81992e-012
110
root  -36.7026 37.2497 10.1343 54.6775 -84.9535 -60.685
RightUpLeg  -26.488 -14.4942 13.0405
RightLeg  39.8 -9.63952 -8.76236
RightFoot  -8.78762 0.272651 -14.1725
RightToes  -1.16417e-010 0 -3.6325e-017
Spine  7.81164 -5.40364 2.74083
Spine1  3.73127 -6.87675 9.39201
HEad  -19.0336 -15.6962 4.90559
LeftShoulder1  8.94031 -12.978 -47.3379
LeftArm  10.6991 -11.6669 -40.1485
LeftForeArm  46.0252 -31.4077 -4.29037
LeftHand  -0.244104 0.0205437 5.32207
RightShoulder  4.48572 7.34314 35.384
RightArm  -39.8832 -13.657 22.0876
RightForeArm  -33.6158 71.9305 43.0465
RightHand  -5.42976 14.2111 -31.6777
LeftUpLeg  7.11024 16.3762 8.25393
LeftLeg  57.8168 -1.19986 -1.43758
LeftFoot  8.90519 1.56586 -9.14639
LeftToes  4.18335e-011 -7.14095e-012 4.81992e-012
111
root  -38.1832 37.26 10.2144 57.9867 -84.1055 -63.8383
RightUpLeg  -24.7527 -16.4845 13.2585
RightLeg  41.4155 -8.27818 -8.05561
RightFoot  -12.2049 -0.174556 -11.1626
RightToes  -1.16417e-010 0 -3.6325e-017
Spine  8.82222 -5.44205 5.04299
Spine1  3.63779 -6.37857 9.38181
HEad  -21.2113 -16.3607 5.68381
LeftShoulder1  9.16173 -13.0675 -48.2637
LeftArm  11.512 -6.94711 -37.6198
LeftForeArm  43.9297 -24.3992 -3.4904
LeftHand  -0.244104 0.0205437 5.32207
RightShoulder  4.35563 6.99727 35.5052
RightArm  -39.3903 -15.4911 22.7429
RightForeArm  -40.1262 69.9769 37.8347
RightHand  -5.44127 14.1661 -31.8051
LeftUpLeg  -2.44183 12.3722 7.79867
LeftLeg  70.2601 0.37503 2.08307
LeftFoot  11.2643 0.945055 -4.9785
LeftToes  4.18335e-011 -7.14095e-012 4.81992e-012
112
root  -39.8157 37.8625 10.2976 83.7342 -85.6303 -89.4088
RightUpLeg  -20.3827 -17.1469 11.3965
RightLeg  39.0443 -6.74505 -6.13403
RightFoot  -13.2721 -0.27775 -11.2224
RightToes  -1.16417e-010 0 -3.6325e-017
Spine  8.97064 -4.17145 5.3138
Spine1  3.37571 -4.70239 8.18653
HEad  -21.8639 -17.081 6.54199
LeftShoulder1  9.17014 -12.8111 -49.0711
LeftArm  6.6663 -2.04723 -34.219
LeftForeArm  45.9083 -16.2616 -5.32289
LeftHand  -0.244104 0.0205437 5.32207
RightShoulder  4.26997 6.66897 35.9876
RightArm  -38.4879 -17.1016 22.9316
RightForeArm  -45.8927 66.4071 30.9525
RightHand  -5.3951 14.242 -31.4384
LeftUpLeg  -9.73135 10.8238 5.80974
LeftLeg  76.3057 1.29696 7.28102
LeftFoot  9.10326 -0.063715 0.0601134
LeftToes  4.18335e-011 -7.14095e-012 4.81992e-012
113
root  -41.4818 38.9245 10.3744 148.737 -85.7422 -154.234
RightUpLeg  -14.4818 -15.7789 7.98004
RightLeg  33.3337 -4.03619 -3.28594
RightFoot  -11.9072 -0.140434 -12.366
RightToes  -1.16417e-010 0 -3.6325e-017
Spine  8.52966 -2.38654 4.59652
Spine1  3.34792 -2.47739 5.87919
HEad  -21.2301 -16.871 6.87955
LeftShoulder1  8.7848 -12.1654 -48.9359
LeftArm  -3.11366 4.42225 -30.5456
LeftForeArm  50.4567 -9.56938 -7.06385
LeftHand  -0.244104 0.0205437 5.32207
RightShoulder  4.27554 6.58096 36.3981
RightArm  -37.8804 -18.1555 23.8114
RightForeArm  -51.1717 61.7885 24.9215
RightHand  -5.60278 14.8635 -31.6271
LeftUpLeg  -14.7128 10.881 3.15068
LeftLeg  75.6382 2.26111 11.2699
LeftFoot  6.95267 -0.534549 3.02554
LeftToes  4.18335e-011 -7.14095e-012 4.81992e-012
114
root  -43.1142 40.1115 10.4758 -178.424 -81.6072 173.528
RightUpLeg  -8.5438 -13.247 3.96412
RightLeg  25.3289 -0.988886 -0.0795303
RightFoot  -9.13781 0.133066 -10.5966
RightToes  -1.16417e-010 0 -3.6325e-017
Spine  7.35495 -1.08717 4.02893
Spine1  3.65622 -0.764556 3.5235
HEad  -20.0467 -15.7973 6.81019
LeftShoulder1  8.28751 -11.6153 -47.8394
LeftArm  -6.08253 13.0406 -27.4783
LeftForeArm  47.2651 -7.42557 -6.28305
LeftHand  -0.244104 0.0205437 5.32207
RightShoulder  4.27942 6.60406 36.3417
RightArm  -38.6852 -18.6258 25.741
RightForeArm  -56.0082 57.5497 21.0209
RightHand  -5.95294 15.5544 -32.4409
LeftUpLeg  -18.7028 10.2159 0.619948
LeftLeg  70.5923 3.74596 12.5944
LeftFoot  6.05261 -0.687386 4.25198
LeftToes  4.18335e-011 -7.14095e-012 4.81992e-012
115
root  -44.7609 41.1195 10.576 -170.692 -77.2158 167.256
RightUpLeg  -3.64238 -7.98568 -0.0930581
RightLeg  17.4621 -3.49522 1.79204
RightFoot  -6.00445 0.229848 -5.83553
RightToes  -1.16417e-010 0 -3.6325e-017
Spine  5.10737 -0.0117631 3.54776
Spine1  4.04601 0.513924 1.41603
HEad  -18.4127 -14.605 6.48425
LeftShoulder1  7.96314 -11.4528 -46.4418
LeftArm  -6.24747 22.8556 -24.7918
LeftForeArm  42.8796 -8.37664 -5.79066
LeftHand  -0.244104 0.0205437 5.32207
RightShoulder  4.2577 6.59392 36.1736
RightArm  -40.9329 -18.7557 27.1696
RightForeArm  -58.4893 54.6646 18.9288
RightHand  -6.09652 15.7908 -32.8295
LeftUpLeg  -22.5782 8.82084 -1.29103
LeftLeg  63.3192 5.34741 12.0636
LeftFoot  4.59355 -0.699006 4.78737
LeftToes  4.18335e-011 -7.14095e-012 4.81992e-012
116
root  -46.3276 41.7955 10.6556 -168.439 -72.1016 166.83
RightUpLeg  -0.47024 -8.1758 -2.72277
RightLeg  13.2685 -5.8183 2.1366
RightFoot  -3.5491 0.0968504 -1.71644
RightToes  -1.16417e-010 0 -3.6325e-017
Spine  3.1037 1.41527 3.56452
Spine1  3.86173 2.14985 -0.966091
HEad  -16.8445 -13.1701 6.35755
LeftShoulder1  7.49907 -11.1671 -44.5074
LeftArm  -4.79478 32.7929 -22.8494
LeftForeArm  38.9195 -10.7081 -5.53405
LeftHand  -0.244104 0.0205437 5.32207
RightShoulder  4.23892 6.54414 36.1954
RightArm  -43.5627 -18.5536 27.0148
RightForeArm  -57.5725 53.0644 17.8897
RightHand  -5.64943 15.0229 -31.62
LeftUpLeg  -25.9092 8.52956 -1.72
LeftLeg  54.5158 6.2356 9.82972
LeftFoot  2.32298 -0.499787 4.03018
LeftToes  4.18335e-011 -7.14095e-012 4.81992e-012
117
root  -47.7313 42.0459 10.7415 -169.311 -66.1148 168.8
RightUpLeg  1.7507 -9.91597 -4.79152
RightLeg  13.621 -8.05622 1.7708
RightFoot  -3.0931 -0.113316 1.34129
RightToes  -1.16417e-010 0 -3.6325e-017
Spine  3.18874 3.02585 4.02574
Spine1  2.65029 4.11558 -3.58497
HEad  -16.7308 -11.0356 7.45516
LeftShoulder1  6.5154 -10.1727 -41.2681
LeftArm  -2.05839 42.385 -21.9632
LeftForeArm  34.3089 -13.7754 -5.1094
LeftHand  -0.244104 0.0205437 5.32207
RightShoulder  4.14383 6.36761 35.9888
RightArm  -45.7684 -17.6575 26.1465
RightForeArm  -54.8623 52.4823 17.502
RightHand  -4.80188 13.4421 -29.3011
LeftUpLeg  -27.5469 10.0172 -0.686399
LeftLeg  44.348 5.39209 6.06565
LeftFoot  0.47352 -0.235128 2.25156
LeftToes  4.18335e-011 -7.14095e-012 4.81992e-012
118
root  -49.0158 41.8569 10.8349 -170.358 -60.2689 169.864
RightUpLeg  4.46836 -12.4906 -7.42791
RightLeg  14.4312 -5.71497 1.77698
RightFoot  -4.92238 -0.241459 3.73892
RightToes  -1.16417e-010 0 -3.6325e-017
Spine  4.97814 4.34837 3.75761
Spine1  1.16718 5.7558 -5.75817
HEad  -17.1239 -9.46426 9.34959
LeftShoulder1  5.32406 -8.75772 -37.2748
LeftArm  1.09904 51.1186 -21.3215
LeftForeArm  29.7368 -16.3145 -4.67961
LeftHand  -0.244104 0.0205437 5.32207
RightShoulder  3.87161 5.90526 35.1695
RightArm  -47.151 -15.7938 25.3845
RightForeArm  -52.7626 52.8213 17.6773
RightHand  -4.46619 12.7049 -28.4101
LeftUpLeg  -27.2551 11.8087 0.869661
LeftLeg  33.1966 3.14432 2.58168
LeftFoot  -0.316507 -0.0728839 0.788026
LeftToes  4.18335e-011 -7.14095e-012 4.81992e-012
119
root  -50.3033 41.3762 10.9343 -171.401 -55.1619 170.421
RightUpLeg  7.46806 -13.8601 -10.6811
RightLeg  13.6351 -0.594036 3.1207
RightFoot  -8.38084 -0.181945 4.67219
RightToes  -1.16417e-010 0 -3.6325e-017
Spine  6.68786 5.39754 3.09049
Spine1  0.501752 7.03976 -7.16768
HEad  -16.5671 -9.41341 10.7125
LeftShoulder1  4.51947 -7.67562 -34.366
LeftArm  2.74544 58.0155 -19.6046
LeftForeArm  28.2851 -15.8296 -4.78936
LeftHand  -0.244104 0.0205437 5.32207
RightShoulder  3.53923 5.31885 34.1564
RightArm  -47.4234 -13.1503 23.9246
RightForeArm  -51.8549 53.4209 18.0334
RightHand  -4.89061 13.5115 -29.7076
LeftUpLeg  -25.6601 12.6305 2.89656
LeftLeg  21.8695 1.85464 1.08536
LeftFoot  -0.229946 0.0262934 -0.253627
LeftToes  4.18335e-011 -7.14095e-012 4.81992e-012
120
root  -51.7178 40.7811 11.0467 -173.093 -50.9668 171.458
RightUpLeg  9.97756 -14.2062 -13.598
RightLeg  13.0018 4.01898 4.07431
RightFoot  -12.3001 -0.0483141 4.41194
RightToes  -1.16417e-010 0 -3.6325e-017
Spine  7.62695 6.15257 2.97698
Spine1  0.954641 8.05093 -7.87594
HEad  -17.6346 -8.5739 12.2225
LeftShoulder1  4.19747 -7.03935 -33.7364
LeftArm  1.30373 62.3532 -17.4113
LeftForeArm  29.953 -11.5803 -4.8867
LeftHand  -0.244104 0.0205437 5.32207
RightShoulder  3.37325 5.04455 33.5072
RightArm  -46.89 -10.2187 21.2019
RightForeArm  -50.6901 53.294 17.932
RightHand  -4.95851 13.6454 -29.8881
LeftUpLeg  -23.4699 11.9442 5.81477
LeftLeg  12.7676 4.33951 0.775636
LeftFoot  -0.470547 0.110682 -1.14023
LeftToes  4.18335e-011 -7.14095e-012 4.81992e-012
121
root  -53.3273 40.2353 11.1662 -175.169 -48.7376 172.698
RightUpLeg  12.7203 -14.111 -15.9951
RightLeg  13.0708 6.37207 3.84473
RightFoot  -15.2976 0.078166 5.10479
RightToes  -1.16417e-010 0 -3.6325e-017
Spine  7.83654 6.11932 3.16908
Spine1  2.16846 8.17054 -7.69404
HEad  -18.4221 -7.71396 13.1744
LeftShoulder1  4.07207 -6.5264 -34.4933
LeftArm  -1.99283 64.6356 -17.7895
LeftForeArm  29.6645 -6.71919 -3.52659
LeftHand  -0.244104 0.0205437 5.32207
RightShoulder  3.35788 5.09707 33.0889
RightArm  -46.1687 -7.88256 18.611
RightForeArm  -48.1356 52.4193 17.3327
RightHand  -3.88586 11.4866 -26.4799
LeftUpLeg  -21.5923 9.83646 8.53994
LeftLeg  8.25453 10.203 -0.0637317
LeftFoot  -1.76474 0.106167 -1.11682
LeftToes  4.18335e-011 -7.14095e-012 4.81992e-012
122
root  -55.1605 39.7535 11.2818 -176.596 -49.4225 173.459
RightUpLeg  16.334 -14.2236 -18.6068
RightLeg  13.0032 7.64228 3.53781
RightFoot  -16.5482 0.297226 9.06929
RightToes  -1.16417e-010 0 -3.6325e-017
Spine  7.00468 5.21048 2.79417
Spine1  3.51486 7.04261 -6.37858
HEad  -18.0268 -7.42602 13.3711
LeftShoulder1  4.11653 -6.43372 -35.298
LeftArm  -6.28721 65.8989 -21.2245
LeftForeArm  27.4875 -4.56129 -1.97019
LeftHand  -0.244104 0.0205437 5.32207
RightShoulder  3.24583 4.98092 32.2962
RightArm  -45.0949 -7.56481 17.5376
RightForeArm  -45.4748 51.9305 16.969
RightHand  -2.7238 9.00995 -22.1424
LeftUpLeg  -21.4454 10.6817 7.49557
LeftLeg  8.60924 12.248 -0.232673
LeftFoot  -2.38039 0.0205315 -0.102092
LeftToes  4.18335e-011 -7.14095e-012 4.81992e-012
